<?xml version="1.0" encoding="UTF-8"?>
<!DOCTYPE svg PUBLIC "-//W3C//DTD SVG 1.1//EN" "http://www.w3.org/Graphics/SVG/1.1/DTD/svg11.dtd">
<svg xmlns="http://www.w3.org/2000/svg" version="1.1" width="3939px" height="1046px" style="shape-rendering:geometricPrecision; text-rendering:geometricPrecision; image-rendering:optimizeQuality; fill-rule:evenodd; clip-rule:evenodd" xmlns:xlink="http://www.w3.org/1999/xlink">
<g><path style="opacity:0.975" fill="#ff4700" d="M 2143.5,29.5 C 2182.04,26.0033 2208.54,42.0033 2223,77.5C 2231.58,112.112 2221.41,139.612 2192.5,160C 2174.45,169.777 2155.45,172.111 2135.5,167C 2130.36,165.511 2125.52,163.344 2121,160.5C 2109.33,172.833 2097.67,185.167 2086,197.5C 2085.5,351.166 2085.33,504.833 2085.5,658.5C 2072.17,658.5 2058.83,658.5 2045.5,658.5C 2045.33,502.5 2045.5,346.5 2046,190.5C 2062,172.5 2078,154.5 2094,136.5C 2091.5,129.338 2089.17,122.005 2087,114.5C 2081.89,70.002 2100.73,41.6686 2143.5,29.5 Z"/></g>
<g><path style="opacity:0.989" fill="#ff4800" d="M 411.5,98.5 C 502.833,98.5 594.167,98.5 685.5,98.5C 685.5,125.5 685.5,152.5 685.5,179.5C 594.499,179.333 503.499,179.5 412.5,180C 377.655,184.097 346.989,197.431 320.5,220C 264.39,271.646 241.557,335.479 252,411.5C 260.822,467.341 287.655,512.174 332.5,546C 358.143,564.439 386.809,574.772 418.5,577C 507.499,577.5 596.499,577.667 685.5,577.5C 685.5,604.5 685.5,631.5 685.5,658.5C 596.833,658.667 508.166,658.5 419.5,658C 361.306,655.284 310.972,634.284 268.5,595C 199.909,528.913 169.409,448.079 177,352.5C 185.945,255.654 231.112,181.154 312.5,129C 343.392,111.645 376.392,101.478 411.5,98.5 Z"/></g>
<g><path style="opacity:0.993" fill="#ff4800" d="M 720.5,98.5 C 745.167,98.5 769.833,98.5 794.5,98.5C 794.5,285.167 794.5,471.833 794.5,658.5C 769.833,658.5 745.167,658.5 720.5,658.5C 720.5,471.833 720.5,285.167 720.5,98.5 Z"/></g>
<g><path style="opacity:0.988" fill="#ff4700" d="M 1919.5,98.5 C 1944.17,98.5 1968.83,98.5 1993.5,98.5C 1993.67,223.5 1993.5,348.5 1993,473.5C 1987.57,543.896 1955.41,598.062 1896.5,636C 1842.01,664.808 1787.01,665.808 1731.5,639C 1674.46,604.805 1640.96,554.639 1631,488.5C 1621.5,411.282 1645.67,347.115 1703.5,296C 1750.86,259.663 1803.52,249.33 1861.5,265C 1882.99,271.492 1902.16,281.992 1919,296.5C 1919.5,230.501 1919.67,164.501 1919.5,98.5 Z M 1805.5,338.5 C 1847.93,338.486 1880.1,356.486 1902,392.5C 1917.87,419.843 1923.2,449.177 1918,480.5C 1910.66,519.824 1889.49,548.991 1854.5,568C 1798.64,588.158 1754.14,573.658 1721,524.5C 1696.79,481.04 1696.45,437.373 1720,393.5C 1739.53,361.118 1768.03,342.785 1805.5,338.5 Z"/></g>
<g><path style="opacity:0.989" fill="#ff4800" d="M 992.5,258.5 C 1059.07,253.838 1112.57,277.838 1153,330.5C 1185.68,375.866 1199.01,426.532 1193,482.5C 1184.85,549.675 1152.35,601.175 1095.5,637C 1048.31,661.531 999.648,664.865 949.5,647C 893.446,621.085 856.279,578.585 838,519.5C 822.779,461.821 828.779,406.487 856,353.5C 878.074,314.758 909.574,286.591 950.5,269C 964.266,264.02 978.266,260.52 992.5,258.5 Z M 1006.5,338.5 C 1049.54,338.933 1082.04,357.599 1104,394.5C 1122.86,430.295 1125.53,467.295 1112,505.5C 1099.73,534.877 1079.23,556.377 1050.5,570C 994.562,587.243 951.062,571.077 920,521.5C 897.448,477.783 898.114,434.449 922,391.5C 941.757,360.216 969.924,342.549 1006.5,338.5 Z"/></g>
<g><path style="opacity:0.989" fill="#ff4700" d="M 1229.5,258.5 C 1254.17,258.5 1278.83,258.5 1303.5,258.5C 1303.33,329.834 1303.5,401.167 1304,472.5C 1309.23,514.495 1330.06,545.995 1366.5,567C 1425.69,589.048 1471.86,573.215 1505,519.5C 1514.05,502.638 1519.05,484.638 1520,465.5C 1520.5,396.501 1520.67,327.501 1520.5,258.5C 1544.83,258.5 1569.17,258.5 1593.5,258.5C 1593.67,332.167 1593.5,405.834 1593,479.5C 1586.48,542.733 1557.65,592.899 1506.5,630C 1459.97,659.17 1410.3,665.837 1357.5,650C 1306.44,630.276 1269.61,595.443 1247,545.5C 1237.08,522.167 1231.42,497.834 1230,472.5C 1229.5,401.167 1229.33,329.834 1229.5,258.5 Z"/></g>
<g><path style="opacity:0.988" fill="#ff4800" d="M 2300.5,258.5 C 2364.01,253.515 2415.84,275.515 2456,324.5C 2482,356.515 2497,393.181 2501,434.5C 2502.44,509.154 2502.94,583.821 2502.5,658.5C 2477.83,658.5 2453.17,658.5 2428.5,658.5C 2428.67,645.496 2428.5,632.496 2428,619.5C 2390.34,650.38 2347.17,662.88 2298.5,657C 2264.81,652.891 2235.14,639.891 2209.5,618C 2155.35,568.908 2131.85,507.742 2139,434.5C 2147.1,365.132 2180.93,312.632 2240.5,277C 2259.6,267.465 2279.6,261.298 2300.5,258.5 Z M 2314.5,338.5 C 2357.54,338.933 2390.04,357.599 2412,394.5C 2434.85,439.081 2433.85,483.081 2409,526.5C 2377.31,572.288 2334.81,586.788 2281.5,570C 2252.04,555.543 2231.21,533.043 2219,502.5C 2204.08,456.995 2211.08,415.328 2240,377.5C 2259.45,354.025 2284.29,341.025 2314.5,338.5 Z"/></g>
<g><path style="opacity:0.989" fill="#ff4700" d="M 2631.5,258.5 C 2721.5,258.5 2811.5,258.5 2901.5,258.5C 2901.5,285.167 2901.5,311.833 2901.5,338.5C 2815.5,338.333 2729.5,338.5 2643.5,339C 2619.49,345.709 2608.99,361.542 2612,386.5C 2615.11,400.58 2623.28,410.414 2636.5,416C 2694.14,417.025 2751.81,418.025 2809.5,419C 2831.52,422.924 2850.35,432.758 2866,448.5C 2898.79,484.727 2909.12,526.727 2897,574.5C 2885.79,610.706 2862.95,636.54 2828.5,652C 2819.12,655.409 2809.46,657.409 2799.5,658C 2712.17,658.5 2624.83,658.667 2537.5,658.5C 2537.5,631.5 2537.5,604.5 2537.5,577.5C 2624.17,577.667 2710.83,577.5 2797.5,577C 2816.62,571.192 2826.95,558.192 2828.5,538C 2826.99,517.842 2816.66,504.842 2797.5,499C 2741.14,498.971 2684.81,498.304 2628.5,497C 2600.21,491.357 2577.71,476.857 2561,453.5C 2535.74,415.109 2530.74,374.109 2546,330.5C 2561.97,291.347 2590.47,267.347 2631.5,258.5 Z"/></g>
<g><path style="opacity:0.988" fill="#ff4800" d="M 2937.5,258.5 C 2961.83,258.5 2986.17,258.5 3010.5,258.5C 3010.33,327.834 3010.5,397.167 3011,466.5C 3014.87,513.095 3037.37,547.262 3078.5,569C 3135.72,587.706 3180.22,571.54 3212,520.5C 3220.23,505.156 3225.23,488.822 3227,471.5C 3227.5,400.501 3227.67,329.501 3227.5,258.5C 3252.17,258.5 3276.83,258.5 3301.5,258.5C 3301.67,382.5 3301.5,506.5 3301,630.5C 3296,704.705 3261.83,760.872 3198.5,799C 3173.45,812.096 3146.78,818.263 3118.5,817.5C 3118.5,790.833 3118.5,764.167 3118.5,737.5C 3151.81,736.594 3178.98,723.261 3200,697.5C 3218.3,675.111 3227.13,649.444 3226.5,620.5C 3188.75,650.525 3145.75,662.692 3097.5,657C 3062.76,652.793 3032.43,639.126 3006.5,616C 2968.67,582.183 2946.17,540.016 2939,489.5C 2937.53,412.52 2937.03,335.52 2937.5,258.5 Z"/></g>
<g><path style="opacity:0.989" fill="#ff4800" d="M 3431.5,258.5 C 3521.17,258.5 3610.83,258.5 3700.5,258.5C 3700.5,285.167 3700.5,311.833 3700.5,338.5C 3614.5,338.333 3528.5,338.5 3442.5,339C 3425.37,342.794 3414.87,353.294 3411,370.5C 3408.3,391.606 3416.47,406.773 3435.5,416C 3493.14,417.021 3550.81,418.021 3608.5,419C 3642.29,426.137 3667.79,444.637 3685,474.5C 3701.47,506.704 3705.13,540.37 3696,575.5C 3683.64,615.196 3657.8,641.696 3618.5,655C 3612.25,656.517 3605.91,657.517 3599.5,658C 3511.83,658.5 3424.17,658.667 3336.5,658.5C 3336.5,631.5 3336.5,604.5 3336.5,577.5C 3423.17,577.667 3509.83,577.5 3596.5,577C 3615.87,571.305 3626.2,558.305 3627.5,538C 3626.2,517.695 3615.87,504.695 3596.5,499C 3540.14,498.971 3483.81,498.304 3427.5,497C 3400.09,491.043 3377.92,476.877 3361,454.5C 3335.82,417.038 3330.15,376.705 3344,333.5C 3359.66,292.463 3388.83,267.463 3431.5,258.5 Z"/></g>
<g><path style="opacity:0.952" fill="#ff4800" d="M 1829.5,375.5 C 1842.92,374.92 1850.58,381.254 1852.5,394.5C 1848.7,411.567 1838.7,416.734 1822.5,410C 1811.83,399.667 1811.83,389.333 1822.5,379C 1824.93,377.787 1827.26,376.621 1829.5,375.5 Z"/></g>
<g><path style="opacity:0.951" fill="#ff4800" d="M 2274.5,393.5 C 2293.67,395.517 2299.84,405.517 2293,423.5C 2282.67,434.167 2272.33,434.167 2262,423.5C 2255.46,408.923 2259.63,398.923 2274.5,393.5 Z"/></g>
<g><path style="opacity:0.953" fill="#ff4700" d="M 1017.5,398.5 C 1034.95,399.386 1041.78,408.386 1038,425.5C 1030.36,437.151 1020.53,439.317 1008.5,432C 1000.5,422.333 1000.5,412.667 1008.5,403C 1011.44,401.199 1014.44,399.699 1017.5,398.5 Z"/></g>
<g><path style="opacity:0.954" fill="#ff4800" d="M 1757.5,412.5 C 1776.42,411.252 1784.25,419.918 1781,438.5C 1775.19,448.553 1766.69,451.719 1755.5,448C 1742.71,438.728 1741.38,428.062 1751.5,416C 1753.73,415.059 1755.73,413.892 1757.5,412.5 Z"/></g>
<g><path style="opacity:0.953" fill="#ff4700" d="M 932.5,414.5 C 950.978,413.825 958.478,422.492 955,440.5C 950.061,450.157 942.228,453.657 931.5,451C 921.12,446.068 917.287,437.901 920,426.5C 922.769,420.895 926.936,416.895 932.5,414.5 Z"/></g>
<g><path style="opacity:0.956" fill="#ff4700" d="M 2347.5,418.5 C 2365.94,417.102 2373.77,425.436 2371,443.5C 2363.53,456.442 2353.37,458.942 2340.5,451C 2332.3,441.055 2332.63,431.388 2341.5,422C 2343.73,421.059 2345.73,419.892 2347.5,418.5 Z"/></g>
<g><path style="opacity:0.945" fill="#ff4700" d="M 1803.5,460.5 C 1818.63,461.741 1824.13,469.741 1820,484.5C 1811.35,494.63 1802.35,494.963 1793,485.5C 1787.87,473.345 1791.37,465.012 1803.5,460.5 Z"/></g>
<g><path style="opacity:0.957" fill="#ff4800" d="M 1073.5,464.5 C 1086.95,463.876 1094.28,470.21 1095.5,483.5C 1094.62,494.88 1088.45,501.213 1077,502.5C 1062.89,500.054 1056.89,491.721 1059,477.5C 1061.55,470.443 1066.38,466.109 1073.5,464.5 Z"/></g>
<g><path style="opacity:0.955" fill="#ff4700" d="M 2271.5,479.5 C 2286.06,477.432 2294.39,483.599 2296.5,498C 2292.77,514.032 2283.1,519.365 2267.5,514C 2257.98,506.392 2256.15,497.226 2262,486.5C 2264.53,483.115 2267.7,480.782 2271.5,479.5 Z"/></g>
<g><path style="opacity:0.955" fill="#ff4800" d="M 1860.5,482.5 C 1870.81,480.243 1878.64,483.576 1884,492.5C 1887.95,503.749 1884.78,512.249 1874.5,518C 1862.58,521.624 1854.08,517.791 1849,506.5C 1846.7,495.442 1850.53,487.442 1860.5,482.5 Z"/></g>
<g><path style="opacity:0.954" fill="#ff4700" d="M 2356.5,488.5 C 2376.8,487.629 2384.3,496.963 2379,516.5C 2372.78,525.017 2364.61,527.517 2354.5,524C 2341.71,514.728 2340.38,504.062 2350.5,492C 2352.73,491.059 2354.73,489.892 2356.5,488.5 Z"/></g>
<g><path style="opacity:0.954" fill="#ff4800" d="M 995.5,497.5 C 1013.97,496.812 1021.47,505.478 1018,523.5C 1013.06,533.157 1005.23,536.657 994.5,534C 983.763,529.14 979.93,520.974 983,509.5C 985.769,503.895 989.936,499.895 995.5,497.5 Z"/></g>
<g><path style="opacity:0.953" fill="#ff4800" d="M 1748.5,497.5 C 1766.95,496.109 1774.78,504.443 1772,522.5C 1766.73,533.377 1758.23,536.877 1746.5,533C 1736.74,527.504 1733.57,519.338 1737,508.5C 1739.41,503.252 1743.25,499.586 1748.5,497.5 Z"/></g>
<g><path style="opacity:0.966" fill="#ff4800" d="M 2099.5,697.5 C 2132.48,694.233 2156.32,707.233 2171,736.5C 2172.47,740.723 2173.47,745.057 2174,749.5C 2174.5,772.164 2174.67,794.831 2174.5,817.5C 2168.17,817.5 2161.83,817.5 2155.5,817.5C 2155.5,803.167 2155.5,788.833 2155.5,774.5C 2125.5,774.5 2095.5,774.5 2065.5,774.5C 2065.5,788.833 2065.5,803.167 2065.5,817.5C 2059.17,817.5 2052.83,817.5 2046.5,817.5C 2046.33,793.831 2046.5,770.164 2047,746.5C 2054.42,719.241 2071.92,702.907 2099.5,697.5 Z M 2101.5,715.5 C 2124.42,712.728 2141.25,721.394 2152,741.5C 2153.87,746.345 2155.04,751.345 2155.5,756.5C 2125.5,756.5 2095.5,756.5 2065.5,756.5C 2068.26,734.739 2080.26,721.073 2101.5,715.5 Z"/></g>
<g><path style="opacity:0.952" fill="#ff4800" d="M 2235.5,697.5 C 2260.83,697.5 2286.17,697.5 2311.5,697.5C 2311.5,703.5 2311.5,709.5 2311.5,715.5C 2287.16,715.333 2262.83,715.5 2238.5,716C 2210.13,723.574 2198.63,741.741 2204,770.5C 2210.78,786.284 2222.62,795.784 2239.5,799C 2263.5,799.5 2287.5,799.667 2311.5,799.5C 2311.5,805.5 2311.5,811.5 2311.5,817.5C 2286.5,817.667 2261.5,817.5 2236.5,817C 2211.19,812.691 2194.02,798.524 2185,774.5C 2177.98,741.037 2189.82,716.87 2220.5,702C 2225.58,700.32 2230.58,698.82 2235.5,697.5 Z"/></g>
<g><path style="opacity:0.966" fill="#ff4800" d="M 2372.5,697.5 C 2405.48,694.233 2429.32,707.233 2444,736.5C 2445.31,740.42 2446.31,744.42 2447,748.5C 2447.5,771.498 2447.67,794.498 2447.5,817.5C 2441.17,817.5 2434.83,817.5 2428.5,817.5C 2428.5,803.167 2428.5,788.833 2428.5,774.5C 2398.5,774.5 2368.5,774.5 2338.5,774.5C 2338.5,788.833 2338.5,803.167 2338.5,817.5C 2332.17,817.5 2325.83,817.5 2319.5,817.5C 2319.33,793.831 2319.5,770.164 2320,746.5C 2327.43,719.237 2344.93,702.903 2372.5,697.5 Z M 2374.5,715.5 C 2398.2,713.079 2415.37,722.412 2426,743.5C 2427.16,747.782 2427.99,752.116 2428.5,756.5C 2398.5,756.5 2368.5,756.5 2338.5,756.5C 2341.27,734.727 2353.27,721.06 2374.5,715.5 Z"/></g>
<g><path style="opacity:0.953" fill="#ff4800" d="M 2455.5,697.5 C 2480.84,697.333 2506.17,697.5 2531.5,698C 2556.66,702.824 2573.49,717.324 2582,741.5C 2588.29,774.759 2576.12,798.592 2545.5,813C 2540.32,814.961 2534.99,816.294 2529.5,817C 2504.84,817.5 2480.17,817.667 2455.5,817.5C 2455.5,777.5 2455.5,737.5 2455.5,697.5 Z M 2474.5,715.5 C 2492.5,715.333 2510.5,715.5 2528.5,716C 2556.03,723.579 2567.53,741.412 2563,769.5C 2556.61,785.891 2544.78,795.725 2527.5,799C 2509.84,799.5 2492.17,799.667 2474.5,799.5C 2474.5,771.5 2474.5,743.5 2474.5,715.5 Z"/></g>
<g><path style="opacity:0.949" fill="#ff4800" d="M 2645.5,697.5 C 2670.5,697.5 2695.5,697.5 2720.5,697.5C 2720.5,703.5 2720.5,709.5 2720.5,715.5C 2696.16,715.333 2671.83,715.5 2647.5,716C 2629.98,720.02 2618.31,730.52 2612.5,747.5C 2642.49,748.5 2672.49,748.833 2702.5,748.5C 2702.5,754.5 2702.5,760.5 2702.5,766.5C 2672.49,766.167 2642.49,766.5 2612.5,767.5C 2618.43,784.932 2630.43,795.432 2648.5,799C 2672.5,799.5 2696.5,799.667 2720.5,799.5C 2720.5,805.5 2720.5,811.5 2720.5,817.5C 2695.83,817.667 2671.16,817.5 2646.5,817C 2625.84,813.658 2610.01,803.158 2599,785.5C 2584.29,746.952 2595.46,718.786 2632.5,701C 2636.92,699.648 2641.25,698.481 2645.5,697.5 Z"/></g>
<g><path style="opacity:0.954" fill="#ff4800" d="M 2781.5,697.5 C 2808.59,694.386 2830.59,703.386 2847.5,724.5C 2872.31,695.904 2901.97,689.738 2936.5,706C 2953.13,716.305 2962.97,731.138 2966,750.5C 2966.5,772.831 2966.67,795.164 2966.5,817.5C 2960.17,817.5 2953.83,817.5 2947.5,817.5C 2947.67,796.164 2947.5,774.831 2947,753.5C 2944.05,734.883 2933.55,722.717 2915.5,717C 2890.49,711.593 2871.99,720.093 2860,742.5C 2859.18,744.788 2858.51,747.122 2858,749.5C 2857.5,772.164 2857.33,794.831 2857.5,817.5C 2850.83,817.5 2844.17,817.5 2837.5,817.5C 2837.67,794.498 2837.5,771.498 2837,748.5C 2826.77,721.962 2807.6,711.462 2779.5,717C 2760.85,723.652 2750.35,736.819 2748,756.5C 2747.5,776.831 2747.33,797.164 2747.5,817.5C 2741.17,817.5 2734.83,817.5 2728.5,817.5C 2728.33,795.497 2728.5,773.497 2729,751.5C 2732.34,728.152 2744.84,711.652 2766.5,702C 2771.58,700.32 2776.58,698.82 2781.5,697.5 Z"/></g>
<g><path style="opacity:0.952" fill="#ff4800" d="M 2974.5,697.5 C 2980.83,697.5 2987.17,697.5 2993.5,697.5C 2990.15,716.991 2995.49,733.491 3009.5,747C 3023.61,756.828 3038.95,759.161 3055.5,754C 3078.99,742.445 3088.32,723.611 3083.5,697.5C 3089.83,697.5 3096.17,697.5 3102.5,697.5C 3107.2,738.771 3089.53,764.438 3049.5,774.5C 3048.5,788.818 3048.17,803.151 3048.5,817.5C 3042.17,817.5 3035.83,817.5 3029.5,817.5C 3029.5,803.167 3029.5,788.833 3029.5,774.5C 2988.42,765.379 2970.09,739.713 2974.5,697.5 Z"/></g>
</svg>
